<?xml version="1.0" encoding="utf-8"?>
<!-- Generator: Adobe Illustrator 27.1.0, SVG Export Plug-In . SVG Version: 6.00 Build 0)  -->
<svg version="1.1" id="Capa_1" xmlns="http://www.w3.org/2000/svg" xmlns:xlink="http://www.w3.org/1999/xlink" x="0px" y="0px"
	 viewBox="0 0 1123.5 544.7" style="enable-background:new 0 0 1123.5 544.7;" xml:space="preserve">
<style type="text/css">
	.st0{fill:#FFB629;}
	.st1{display:none;fill:#FFB629;}
	.st2{fill:#0AA0DF;}
</style>
<g id="Layer_2">
	<g id="Logos">
		<ellipse class="st0" cx="387.2" cy="512.9" rx="26.2" ry="26.2"/>
		<circle class="st0" cx="211.7" cy="512.8" r="26.2"/>
		<path class="st1" d="M514.9,458.4c2.1,0.2,4.1,0.2,6,0.2c2.4,0,4.8-0.1,7.1-0.2H514.9z"/>
		<path class="st0" d="M570.9,370.8c-5.6-4.7-11.6-8.9-18-12.5c-6.4-3.7-12.5-7.3-18.2-10.7c-5.1-2.9-9.7-6.6-13.6-11.1
			c-3.3-3.9-4.8-9-4.1-14c0.6-5.4,3.5-10.2,7.9-13.3c4.7-3.5,10.5-5.2,17.7-5.2c5.5,0,10.9,0.5,16.3,1.3c6.3,1,12.5,2.5,18.5,4.4
			l11.4-21.5c-7.9-2.8-16.1-5-24.4-6.3c-7-1-14-1.5-21.1-1.5c-9.1-0.1-18.1,1.6-26.5,4.8c-8.1,3-15.2,8.1-20.8,14.7
			c-5.6,6.7-9,15.2-10.2,25.5c-1,7.3-0.3,13.8,2,19.2c2.2,5.4,5.5,10.4,9.8,14.4c4.4,4.2,9.2,8,14.3,11.2c5.3,3.3,10.6,6.5,16,9.4
			c5,2.7,9.9,5.7,14.6,9c4,2.8,7.5,6.2,10.2,10.2c2.5,3.8,3.4,8.4,2.7,12.9c-0.7,6.2-4.1,11.5-10.1,15.9c-6,4.4-13.2,6.6-21.7,6.6
			h-48.7l0,0h-308L160,404h255c6.1,0,11.3-4.5,12-10.6l26-202l22.5-47.4l43.6-12.2c6.4-1.7,10-8.2,8.2-14.7s-8.5-10.2-14.9-8.4
			l-50.3,14c-4.1,1.1-5.8,3.1-8.4,8.6l-22.6,48.1l-26.9,200.5h-30.6l16-144.3L363.3,254l-13.9,125.8h-30.7l3.8-97.5l-24.9,17.3
			l-3.1,80.2h-31.8l-2.4-54.2L236.8,342l1.7,37.8h-29.9l-2.4-16.5L184,378.8l-1.4,1l-45.7,31.8l8.6,37.3c1.3,5.5,6.2,9.4,11.8,9.4
			h357.2h0.1h13c8.6-0.5,17.1-2.3,25.2-5.3c6.2-2.4,12-5.8,17.2-10.1c2.2-1.9,4.2-3.9,6.1-6.1c6-7.1,9.6-15.7,10.8-25.9
			c1.1-9.2,0.1-17-3-23.5C580.8,381.1,576.4,375.4,570.9,370.8z"/>
		<path class="st0" d="M640.6,458.8c-5.4,0-10.6-1.4-15.2-4.1c-4.9-2.9-8.7-7.4-10.8-12.6c-2.5-5.6-3.2-12.8-2.1-21.4l10.7-87.4H656
			l-10.7,86.9c-0.5,3.9-0.1,7.1,1.2,9.6s4,3.8,8,3.9c1.6,0,3.1-0.2,4.6-0.6c1.8-0.5,3.7-0.7,5.6-0.8c3.7-0.2,6.7,1.4,8.8,4.8
			s4.2,7,6.1,10.8c-6.9,3.6-14.2,6.4-21.7,8.5C652.3,457.9,646.4,458.7,640.6,458.8z M693.6,455.7c-2.9-3.7-4.9-8-5.9-12.7
			c-0.8-4.4-0.9-8.9-0.3-13.4l11.8-96.4h33.2l-11.1,91.4c-0.6,4.6-0.8,9.3-0.8,14c0,5.3,0.4,10.6,1.1,15.9L693.6,455.7z"/>
		<path class="st0" d="M748.1,511.1l18-146.9c0.5-4.4,0.8-9.1,0.8-14.1c0.1-5.3-0.2-10.5-0.8-15.8l25.6-1.2c2,1.3,3.5,3,4.6,5.1
			c1.1,2.2,2.1,4.5,2.8,6.9v4.7l4.3-4.7c7-5.8,13.2-9.8,18.4-12c4.7-2,9.8-3.1,15-3.2c11.4,0,20.8,2.8,28.1,8.5
			c7.4,5.6,12.6,13.4,15.6,23.2c3.1,9.8,3.9,21,2.4,33.5c-1,8.3-3.4,16.3-7.2,23.8c-3.7,7.3-8.4,14.1-14.1,20
			c-5.3,5.6-11.5,10.2-18.4,13.7c-6.2,3.2-13.2,5-20.2,5c-3.9,0-7.8-0.3-11.7-0.8c-4.9-0.8-9.8-2-14.5-3.4c2.4-4.9,5.4-9.4,9-13.4
			c3.2-3.5,6.8-5.3,10.7-5.6c6.6-0.4,12.1-2.3,16.4-5.8c4.5-3.7,7.9-8.4,10.1-13.8c2.5-6.3,4.2-13,5-19.8c0.9-6.8,0.7-13.6-0.6-20.3
			c-1.3-6.2-3.5-11.2-6.8-14.9c-3.2-3.7-7.8-5.7-12.7-5.6s-9.8,1.5-14,4c-4.8,2.7-10,6.9-15.6,12.5L781,512.4L748.1,511.1z"/>
		<path class="st0" d="M957.5,458.8c-10.8,0-19.9-1.9-27.4-5.7c-7.1-3.5-13.1-8.8-17.6-15.4c-4.3-6.5-7.3-13.8-8.7-21.4
			c-1.5-7.8-1.8-15.8-0.8-23.7c1.7-13,5.9-24.2,12.6-33.5c6.5-9.1,15.1-16.4,25.1-21.4c10-4.9,21-7.5,32.2-7.4
			c8-0.2,16,1.6,23.2,5.1c6.5,3.2,11.9,8.3,15.6,14.5c3.7,6.2,5.5,13.6,5.5,22.1s-2.4,17.9-7.2,28.1h-66.3c2.2-5.1,5.3-9.8,9.2-13.8
			c3.8-3.7,7.6-5.6,11.7-5.6h21.1c1.2-4.4,1.4-9,0.4-13.5c-0.8-3.9-3-7.5-6-10.1s-6.9-3.9-11.7-3.9c-4.7,0.1-9.3,1.5-13.4,3.9
			c-4.6,2.6-8.6,6.7-12.1,12.3c-3.5,5.6-5.8,12.9-6.9,21.9c-1.1,9.1-0.6,16.8,1.4,23.3c2,6.4,5.3,11.3,9.9,14.8
			c4.6,3.4,10.2,5.1,16.9,5.1c5.6,0,11.1-0.7,16.5-2.1c6.5-1.7,12.9-4,19.1-6.7l5.7,22c-8.1,3.7-16.5,6.6-25.2,8.6
			C972.7,457.9,965.1,458.7,957.5,458.8z"/>
		<path class="st0" d="M1034,455.7l11.1-91.4c0.5-4.4,0.7-9.1,0.8-14.1c0-5.3-0.3-10.5-1-15.8l25.3-1.2c1.2,1,2.3,3.2,3.4,6.5
			c1.1,3.6,1.7,7.3,1.8,11l-0.2,5.7l3.1-5.7c3.5-5.9,8.4-10.9,14.2-14.7c5.5-3.5,10.8-5.2,15.9-5.2c2.5,0,5,0.2,7.5,0.7
			c2.6,0.5,5.2,1.2,7.7,2.1l-7.1,26.8c-2.5-0.8-5.1-1.4-7.8-1.9c-2-0.3-4-0.5-6-0.5c-5.3,0-10.5,1.8-14.5,5.3
			c-4.6,3.9-8.2,8.8-10.6,14.4c-2.9,6.6-4.8,13.6-5.6,20.8l-6.9,57.1L1034,455.7z"/>
		<path class="st2" d="M431.7,93l-56.8-81.5c-4.7-6.7-12.6-10.4-20.8-9.8L252.2,10c-6.9,0.6-13.6,3-19.3,6.9L10.7,171.8
			c-8.7,6.1-10.9,18-4.8,26.8c0,0,0,0,0,0.1L128,373.8l-36.8-143c-1.7-6.5,2.2-13,8.7-14.7c0.5-0.1,1.1-0.2,1.7-0.3l300.8-33.2
			l31.3-66.7C437.2,108.4,436.4,99.7,431.7,93z M366.6,109c-11.7,8.2-27.8,5.3-36-6.4s-5.3-27.8,6.4-36c11.7-8.2,27.8-5.3,36,6.4
			S378.3,100.8,366.6,109L366.6,109L366.6,109z M323.3,261.4l42.4-29.6l2.3-21.2l-42.9,4.8L323.3,261.4z M259.5,305.9l39-27.2
			l2.4-60.7l-45,5L259.5,305.9z M187.1,230.6l16.4,114.2l32.4-22.6l-4.2-96.6L187.1,230.6z M118.1,238.2l36.3,140.9l0.6-0.4
			l26.4-18.4l-18.3-127L118.1,238.2z"/>
		<path class="st2" d="M685.5,280.2c-18,0-32.8-3.6-44.5-10.9c-11.4-6.9-20.2-17.2-25.2-29.6c-5.1-12.4-6.7-26.3-4.8-41.7
			c1.4-11.2,4.7-22,9.8-32c10.2-20.1,27.5-35.7,48.6-43.7c11.5-4.4,23.8-6.5,36.2-6.4c6.2,0,12.4,0.6,18.5,1.7
			c6.5,1.3,12.9,3.2,19.1,5.7l-10.3,20.1c-5.2-1.6-10.5-2.9-15.8-3.9c-4.7-0.8-9.4-1.1-14.1-1.1c-8.1-0.1-16,1.6-23.3,5
			c-6.8,3.3-12.8,7.8-17.7,13.5c-5,5.7-9,12.1-11.8,19.1c-3,7-5,14.4-5.9,22c-1,7.3-0.8,14.7,0.4,21.9c1.1,6.8,3.6,13.3,7.2,19.2
			c3.6,5.7,8.5,10.3,14.4,13.5c6,3.3,13.4,5,22.1,5c5.1,0,10.2-0.6,15.1-1.9c5.5-1.4,10.9-3.3,16.1-5.6l5.7,19.9
			c-6.5,3.2-13.4,5.8-20.4,7.5C698.5,279.3,692.1,280.2,685.5,280.2z"/>
		<path class="st2" d="M766.8,280.4c-4.9,0-9.8-1.3-14-3.8c-4.5-2.7-8-6.8-10-11.6c-2.3-5.2-3-11.8-2-19.7l9.8-80.6H781l-9.8,80.2
			c-0.5,3-0.1,6.1,1.1,8.9c1.2,2.4,3.7,3.6,7.4,3.6c1.4,0,2.9-0.2,4.2-0.6c1.7-0.4,3.4-0.7,5.1-0.7c3.4-0.2,6.1,1.3,8.1,4.4
			c2,3.2,3.9,6.6,5.6,10c-6.4,3.3-13.1,5.9-20,7.9C777.6,279.6,772.2,280.4,766.8,280.4z M815.7,277.6c-2.7-3.4-4.5-7.4-5.4-11.7
			c-0.7-4.1-0.8-8.2-0.3-12.3l10.9-88.9h30.6L841.3,249c-0.5,4.3-0.8,8.6-0.8,12.9c0,4.9,0.4,9.8,1,14.6L815.7,277.6z"/>
		<path class="st2" d="M919.9,280.9c-7.8,0-15.5-0.9-23-2.8c-8.2-2.2-16.1-5.4-23.5-9.7L892.6,112l30.2,1.6l-17.5,142.6
			c2.9,0.8,5.9,1.4,8.9,1.8c2.8,0.3,5.6,0.4,8.4,0.4c8.5,0,15.7-3.9,21.6-11.6c5.9-7.8,9.6-17.6,11.1-29.6c0.5-4.9,0.6-9.8,0.1-14.6
			c-0.3-4.5-1.6-8.9-4-12.8c-2.2-3.4-5.7-4.9-10.5-4.5s-8.4-1-10.7-4.3c-2.4-3.7-4.5-7.6-6.3-11.6c4.2-1.9,8.6-3.5,13.2-4.6
			c4-1,8.1-1.7,12.2-2c6.3-0.5,12.6,0.9,18.1,4.1c5.2,3.1,9.6,7.5,12.7,12.7c3.4,5.5,5.7,11.6,7,17.9c1.3,6.5,1.6,13.1,0.8,19.7
			c-1.4,11.5-5.3,22.5-11.4,32.3c-5.9,9.5-14,17.4-23.6,23C943.2,278,932.2,280.9,919.9,280.9z"/>
		<path class="st2" d="M1044,279.6c-6.3,0.5-12.6-0.9-18.1-4.1c-5.2-3.2-9.5-7.5-12.6-12.8c-3.3-5.6-5.6-11.6-6.7-18
			c-1.2-6.4-1.5-13-0.7-19.6c1.3-11.3,5.1-22.1,11.1-31.7c6-9.5,14.2-17.3,23.9-22.9c9.9-5.7,21.4-8.5,34.4-8.5
			c4.1,0,8.2,0.2,12.3,0.5c4.6,0.4,9.2,1,13.8,1.9c5.1,1,11.2,2.3,18.2,4.1l-10,81.5c-0.5,4.3-0.8,8.6-0.9,12.9
			c-0.1,4.9,0.2,9.8,0.9,14.6h-23.4c-1.7-1-3.5-3.8-5.2-8.2c-1.7-4.7-2.3-9.7-1.6-14.7l8.3-68.4c-2.6-0.6-5.3-1.1-8-1.4
			c-2.5-0.3-4.5-0.4-6-0.4c-9.9,0-17.9,3.8-24,11.3s-9.9,17.3-11.4,29.3c-0.6,4.8-0.7,9.6-0.3,14.4c0.2,4.4,1.5,8.7,3.8,12.4
			c2.2,3.3,5.7,4.8,10.7,4.4c4.3-0.4,7.6,0.9,9.9,3.8c2.6,3.3,4.9,6.8,6.9,10.4c-4.3,2.4-8.7,4.4-13.3,6.1
			C1052.3,278.3,1048.2,279.3,1044,279.6z"/>
	</g>
</g>
</svg>
